<svg width="18" height="15" viewBox="0 0 18 15" fill="none" xmlns="http://www.w3.org/2000/svg">
<path d="M15 13.9999C15 14.1989 14.921 14.3896 14.7803 14.5303C14.6397 14.6709 14.4489 14.7499 14.25 14.7499H3.75C3.55109 14.7499 3.36032 14.6709 3.21967 14.5303C3.07902 14.3896 3 14.1989 3 13.9999V7.24994H0.75L8.49525 0.20894C8.63333 0.0832983 8.81331 0.0136719 9 0.0136719C9.18669 0.0136719 9.36667 0.0832983 9.50475 0.20894L17.25 7.24994H15V13.9999ZM13.5 13.2499V5.86769L9 1.77719L4.5 5.86769V13.2499H13.5ZM9 11.7499L6.48075 9.23069C6.32405 9.07399 6.19975 8.88796 6.11494 8.68322C6.03014 8.47848 5.98649 8.25905 5.98649 8.03744C5.98649 7.81583 6.03014 7.5964 6.11494 7.39166C6.19975 7.18692 6.32405 7.00089 6.48075 6.84419C6.63745 6.68749 6.82348 6.56319 7.02822 6.47838C7.23296 6.39358 7.45239 6.34993 7.674 6.34993C7.89561 6.34993 8.11504 6.39358 8.31978 6.47838C8.52452 6.56319 8.71055 6.68749 8.86725 6.84419L9 6.97694L9.13275 6.84419C9.28945 6.68749 9.47548 6.56319 9.68022 6.47838C9.88496 6.39358 10.1044 6.34993 10.326 6.34993C10.5476 6.34993 10.767 6.39358 10.9718 6.47838C11.1765 6.56319 11.3626 6.68749 11.5192 6.84419C11.676 7.00089 11.8003 7.18692 11.8851 7.39166C11.9699 7.5964 12.0135 7.81583 12.0135 8.03744C12.0135 8.25905 11.9699 8.47848 11.8851 8.68322C11.8003 8.88796 11.676 9.07399 11.5192 9.23069L9 11.7499Z" fill="#3D707F"/>
</svg>
