<svg width="18" height="18" viewBox="0 0 18 18" fill="none" xmlns="http://www.w3.org/2000/svg">
<g clip-path="url(#clip0_12_16)">
<path d="M15 15C15 15.1989 14.921 15.3897 14.7803 15.5303C14.6397 15.671 14.4489 15.75 14.25 15.75H3.75C3.55109 15.75 3.36032 15.671 3.21967 15.5303C3.07902 15.3897 3 15.1989 3 15V8.25H0.75L8.49525 1.209C8.63333 1.08336 8.81331 1.01373 9 1.01373C9.18669 1.01373 9.36667 1.08336 9.50475 1.209L17.25 8.25H15V15ZM13.5 14.25V6.86775L9 2.77725L4.5 6.86775V14.25H13.5ZM9 12.75L6.48075 10.2307C6.32405 10.074 6.19975 9.88802 6.11494 9.68328C6.03014 9.47854 5.98649 9.25911 5.98649 9.0375C5.98649 8.81589 6.03014 8.59646 6.11494 8.39172C6.19975 8.18698 6.32405 8.00095 6.48075 7.84425C6.63745 7.68755 6.82348 7.56325 7.02822 7.47844C7.23296 7.39364 7.45239 7.34999 7.674 7.34999C7.89561 7.34999 8.11504 7.39364 8.31978 7.47844C8.52452 7.56325 8.71055 7.68755 8.86725 7.84425L9 7.977L9.13275 7.84425C9.28945 7.68755 9.47548 7.56325 9.68022 7.47844C9.88496 7.39364 10.1044 7.34999 10.326 7.34999C10.5476 7.34999 10.767 7.39364 10.9718 7.47844C11.1765 7.56325 11.3626 7.68755 11.5193 7.84425C11.6759 8.00095 11.8003 8.18698 11.8851 8.39172C11.9699 8.59646 12.0135 8.81589 12.0135 9.0375C12.0135 9.25911 11.9699 9.47854 11.8851 9.68328C11.8003 9.88802 11.6759 10.074 11.5193 10.2307L9 12.75Z" fill="white"/>
</g>
<defs>
<clipPath id="clip0_12_16">
<rect width="18" height="18" fill="white"/>
</clipPath>
</defs>
</svg>
