<svg width="16" height="16" viewBox="0 0 16 16" fill="none" xmlns="http://www.w3.org/2000/svg">
<path d="M7.92499 0.5C9.96274 0.5 10.217 0.5075 11.0165 0.545C11.8152 0.5825 12.359 0.70775 12.8375 0.89375C13.3325 1.08425 13.7495 1.34225 14.1665 1.7585C14.5479 2.13342 14.843 2.58694 15.0312 3.0875C15.2165 3.56525 15.3425 4.10975 15.38 4.9085C15.4152 5.708 15.425 5.96225 15.425 8C15.425 10.0378 15.4175 10.292 15.38 11.0915C15.3425 11.8903 15.2165 12.434 15.0312 12.9125C14.8435 13.4133 14.5483 13.867 14.1665 14.2415C13.7915 14.6227 13.338 14.9178 12.8375 15.1063C12.3597 15.2915 11.8152 15.4175 11.0165 15.455C10.217 15.4903 9.96274 15.5 7.92499 15.5C5.88724 15.5 5.63299 15.4925 4.83349 15.455C4.03474 15.4175 3.49099 15.2915 3.01249 15.1063C2.51173 14.9184 2.05813 14.6232 1.68349 14.2415C1.30204 13.8666 1.00694 13.4131 0.818738 12.9125C0.632738 12.4347 0.507488 11.8903 0.469988 11.0915C0.434738 10.292 0.424988 10.0378 0.424988 8C0.424988 5.96225 0.432488 5.708 0.469988 4.9085C0.507488 4.109 0.632738 3.566 0.818738 3.0875C1.00641 2.58663 1.30159 2.13299 1.68349 1.7585C2.05824 1.37692 2.51181 1.0818 3.01249 0.89375C3.49099 0.70775 4.03399 0.5825 4.83349 0.545C5.63299 0.50975 5.88724 0.5 7.92499 0.5ZM7.92499 4.25C6.93043 4.25 5.9766 4.64509 5.27334 5.34835C4.57008 6.05161 4.17499 7.00544 4.17499 8C4.17499 8.99456 4.57008 9.94839 5.27334 10.6517C5.9766 11.3549 6.93043 11.75 7.92499 11.75C8.91955 11.75 9.87338 11.3549 10.5766 10.6517C11.2799 9.94839 11.675 8.99456 11.675 8C11.675 7.00544 11.2799 6.05161 10.5766 5.34835C9.87338 4.64509 8.91955 4.25 7.92499 4.25ZM12.8 4.0625C12.8 3.81386 12.7012 3.5754 12.5254 3.39959C12.3496 3.22377 12.1111 3.125 11.8625 3.125C11.6138 3.125 11.3754 3.22377 11.1996 3.39959C11.0238 3.5754 10.925 3.81386 10.925 4.0625C10.925 4.31114 11.0238 4.5496 11.1996 4.72541C11.3754 4.90123 11.6138 5 11.8625 5C12.1111 5 12.3496 4.90123 12.5254 4.72541C12.7012 4.5496 12.8 4.31114 12.8 4.0625ZM7.92499 5.75C8.52172 5.75 9.09402 5.98705 9.51598 6.40901C9.93793 6.83097 10.175 7.40326 10.175 8C10.175 8.59674 9.93793 9.16903 9.51598 9.59099C9.09402 10.0129 8.52172 10.25 7.92499 10.25C7.32825 10.25 6.75595 10.0129 6.334 9.59099C5.91204 9.16903 5.67499 8.59674 5.67499 8C5.67499 7.40326 5.91204 6.83097 6.334 6.40901C6.75595 5.98705 7.32825 5.75 7.92499 5.75Z" fill="white"/>
</svg>
